# xmcd CD database file
#
# Track frame offsets:
#	150
#	26837
#	54717
#	83722
#	109207
#	135186
#	158549
#	194862
#	219601
#	241429
#
# Disc length: 3522 seconds
#
# Revision: 2
# Processed by: cddbd v1.5.2PL0 Copyright (c) Steve Scherf et al.
# Submitted via: CDex 1.51
#
DISCID=8a0dc00a
DTITLE=Cafe de Silva - Child Creation
DYEAR=2011
DGENRE=Jazz
TTITLE0=Ancestrais
TTITLE1=Jazz I Love You
TTITLE2=Ke Parrei Oiya (Where She Comes From)
TTITLE3=Cara De Pau
TTITLE4=Fale Quem Quiser Falar (Linda)
TTITLE5=Dreams
TTITLE6=Fusemba
TTITLE7=Cafunk
TTITLE8=Tranca Ruas Das Almas
TTITLE9=Batucada (Cafe Batucada)
EXTD=YEAR: 2011
EXTT0=
EXTT1=
EXTT2=
EXTT3=
EXTT4=
EXTT5=
EXTT6=
EXTT7=
EXTT8=
EXTT9=
PLAYORDER=
